<mxfile host="65bd71144e">
    <diagram id="l8MvcHWF-zqDhp3z0RwE" name="IBM_Secrets_Manager">
        <mxGraphModel dx="1150" dy="712" grid="1" gridSize="10" guides="1" tooltips="1" connect="1" arrows="1" fold="1" page="1" pageScale="1" pageWidth="827" pageHeight="1169" background="#ffffff" math="0" shadow="0">
            <root>
                <mxCell id="VWz3pjbutTLdUSyYRqbr-0"/>
                <mxCell id="VWz3pjbutTLdUSyYRqbr-1" parent="VWz3pjbutTLdUSyYRqbr-0"/>
                <mxCell id="ba0VEkGqpyLUnAD_H8NB-0" value="«Cluster»&lt;br&gt;&lt;b&gt;k8s-cluster&lt;/b&gt;" style="html=1;verticalAlign=top;align=center;" vertex="1" parent="VWz3pjbutTLdUSyYRqbr-1">
                    <mxGeometry x="130" y="440" width="490" height="240" as="geometry"/>
                </mxCell>
                <mxCell id="92RGoLxL6lh5Ix3lvKFG-4" style="edgeStyle=orthogonalEdgeStyle;rounded=0;orthogonalLoop=1;jettySize=auto;html=1;" edge="1" parent="VWz3pjbutTLdUSyYRqbr-1" source="ba0VEkGqpyLUnAD_H8NB-7" target="92RGoLxL6lh5Ix3lvKFG-0">
                    <mxGeometry relative="1" as="geometry"/>
                </mxCell>
                <mxCell id="ba0VEkGqpyLUnAD_H8NB-7" value="«ExternalSecret»&lt;br&gt;&lt;b&gt;secret-manifest&lt;/b&gt;" style="html=1;dropTarget=0;align=center;verticalAlign=top;fillColor=#f5f5f5;strokeColor=#666666;fontColor=#333333;" vertex="1" parent="VWz3pjbutTLdUSyYRqbr-1">
                    <mxGeometry x="150" y="610" width="180" height="50" as="geometry"/>
                </mxCell>
                <mxCell id="ba0VEkGqpyLUnAD_H8NB-8" value="" style="shape=module;jettyWidth=8;jettyHeight=4;" vertex="1" parent="ba0VEkGqpyLUnAD_H8NB-7">
                    <mxGeometry x="1" width="20" height="20" relative="1" as="geometry">
                        <mxPoint x="-27" y="7" as="offset"/>
                    </mxGeometry>
                </mxCell>
                <mxCell id="ba0VEkGqpyLUnAD_H8NB-16" value="«Service»&lt;br&gt;&lt;b&gt;ibm-secrets-manager&lt;/b&gt;" style="html=1;verticalAlign=top;align=center;fillColor=#f5f5f5;strokeColor=#666666;fontColor=#333333;" vertex="1" parent="VWz3pjbutTLdUSyYRqbr-1">
                    <mxGeometry x="130" y="225" width="490" height="60" as="geometry"/>
                </mxCell>
                <mxCell id="ba0VEkGqpyLUnAD_H8NB-19" value="&lt;h1&gt;IBM Secrets Manager with plugin&lt;/h1&gt;&lt;p style=&quot;text-align: left&quot;&gt;Explains the main components and interaction flow of IBM Secrets Manager with the kubernetes-external-secrets plugin to retrieve and expose secrets&lt;/p&gt;" style="text;html=1;strokeColor=none;fillColor=none;spacing=5;spacingTop=-20;whiteSpace=wrap;overflow=hidden;rounded=0;align=center;verticalAlign=top;" vertex="1" parent="VWz3pjbutTLdUSyYRqbr-1">
                    <mxGeometry x="160" y="100" width="460" height="90" as="geometry"/>
                </mxCell>
                <mxCell id="92RGoLxL6lh5Ix3lvKFG-0" value="«Container»&lt;br&gt;&lt;b&gt;master api&lt;/b&gt;" style="html=1;dropTarget=0;align=center;verticalAlign=top;fillColor=#dae8fc;strokeColor=#6c8ebf;" vertex="1" parent="VWz3pjbutTLdUSyYRqbr-1">
                    <mxGeometry x="417" y="610" width="180" height="50" as="geometry"/>
                </mxCell>
                <mxCell id="92RGoLxL6lh5Ix3lvKFG-1" value="" style="shape=module;jettyWidth=8;jettyHeight=4;" vertex="1" parent="92RGoLxL6lh5Ix3lvKFG-0">
                    <mxGeometry x="1" width="20" height="20" relative="1" as="geometry">
                        <mxPoint x="-27" y="7" as="offset"/>
                    </mxGeometry>
                </mxCell>
                <mxCell id="92RGoLxL6lh5Ix3lvKFG-5" value="1. Retrieve ExternalSecret objects" style="edgeStyle=orthogonalEdgeStyle;rounded=0;orthogonalLoop=1;jettySize=auto;html=1;entryX=0.5;entryY=0;entryDx=0;entryDy=0;" edge="1" parent="VWz3pjbutTLdUSyYRqbr-1" source="92RGoLxL6lh5Ix3lvKFG-2" target="92RGoLxL6lh5Ix3lvKFG-0">
                    <mxGeometry relative="1" as="geometry"/>
                </mxCell>
                <mxCell id="92RGoLxL6lh5Ix3lvKFG-7" value="2. Fetch Secret (guid, API Key)" style="edgeStyle=orthogonalEdgeStyle;rounded=0;orthogonalLoop=1;jettySize=auto;html=1;" edge="1" parent="VWz3pjbutTLdUSyYRqbr-1">
                    <mxGeometry relative="1" as="geometry">
                        <mxPoint x="507" y="488" as="sourcePoint"/>
                        <mxPoint x="507" y="285" as="targetPoint"/>
                    </mxGeometry>
                </mxCell>
                <mxCell id="92RGoLxL6lh5Ix3lvKFG-10" value="3. Generate /&amp;nbsp;&lt;br&gt;Update" style="edgeStyle=orthogonalEdgeStyle;rounded=0;orthogonalLoop=1;jettySize=auto;html=1;" edge="1" parent="VWz3pjbutTLdUSyYRqbr-1" source="92RGoLxL6lh5Ix3lvKFG-2" target="92RGoLxL6lh5Ix3lvKFG-8">
                    <mxGeometry relative="1" as="geometry"/>
                </mxCell>
                <mxCell id="92RGoLxL6lh5Ix3lvKFG-2" value="«Container»&lt;br&gt;&lt;b style=&quot;color: rgb(51 , 51 , 51)&quot;&gt;kubernetes-external-secret&lt;/b&gt;" style="html=1;dropTarget=0;align=center;verticalAlign=top;fillColor=#dae8fc;strokeColor=#6c8ebf;" vertex="1" parent="VWz3pjbutTLdUSyYRqbr-1">
                    <mxGeometry x="417" y="490" width="180" height="50" as="geometry"/>
                </mxCell>
                <mxCell id="92RGoLxL6lh5Ix3lvKFG-3" value="" style="shape=module;jettyWidth=8;jettyHeight=4;" vertex="1" parent="92RGoLxL6lh5Ix3lvKFG-2">
                    <mxGeometry x="1" width="20" height="20" relative="1" as="geometry">
                        <mxPoint x="-27" y="7" as="offset"/>
                    </mxGeometry>
                </mxCell>
                <mxCell id="92RGoLxL6lh5Ix3lvKFG-8" value="«Secret»&lt;br&gt;&lt;b&gt;secret-manifest&lt;/b&gt;" style="html=1;dropTarget=0;align=center;verticalAlign=top;fillColor=#f5f5f5;strokeColor=#666666;fontColor=#333333;" vertex="1" parent="VWz3pjbutTLdUSyYRqbr-1">
                    <mxGeometry x="150" y="490" width="180" height="50" as="geometry"/>
                </mxCell>
                <mxCell id="92RGoLxL6lh5Ix3lvKFG-9" value="" style="shape=module;jettyWidth=8;jettyHeight=4;" vertex="1" parent="92RGoLxL6lh5Ix3lvKFG-8">
                    <mxGeometry x="1" width="20" height="20" relative="1" as="geometry">
                        <mxPoint x="-27" y="7" as="offset"/>
                    </mxGeometry>
                </mxCell>
            </root>
        </mxGraphModel>
    </diagram>
    <diagram name="Vault_General" id="oyHYcFFsuQnOf3PUUVnq">
        <mxGraphModel dx="825" dy="712" grid="1" gridSize="10" guides="1" tooltips="1" connect="1" arrows="1" fold="1" page="1" pageScale="1" pageWidth="827" pageHeight="1169" background="#ffffff" math="0" shadow="0">
            <root>
                <mxCell id="iv0tSl8CeNdC8rWq6K2e-0"/>
                <mxCell id="iv0tSl8CeNdC8rWq6K2e-1" parent="iv0tSl8CeNdC8rWq6K2e-0"/>
                <mxCell id="iv0tSl8CeNdC8rWq6K2e-2" value="«POD»&lt;br&gt;&lt;b&gt;Custom App&lt;/b&gt;" style="html=1;verticalAlign=top;align=center;" parent="iv0tSl8CeNdC8rWq6K2e-1" vertex="1">
                    <mxGeometry x="130" y="440" width="250" height="240" as="geometry"/>
                </mxCell>
                <mxCell id="iv0tSl8CeNdC8rWq6K2e-3" style="edgeStyle=orthogonalEdgeStyle;rounded=0;orthogonalLoop=1;jettySize=auto;html=1;entryX=0.5;entryY=0;entryDx=0;entryDy=0;" parent="iv0tSl8CeNdC8rWq6K2e-1" source="iv0tSl8CeNdC8rWq6K2e-4" target="iv0tSl8CeNdC8rWq6K2e-16" edge="1">
                    <mxGeometry relative="1" as="geometry"/>
                </mxCell>
                <mxCell id="iv0tSl8CeNdC8rWq6K2e-22" value="1. auth with &lt;br&gt;service-account &lt;br&gt;token (jwt)" style="edgeStyle=orthogonalEdgeStyle;rounded=0;orthogonalLoop=1;jettySize=auto;html=1;exitX=0.25;exitY=0;exitDx=0;exitDy=0;entryX=0.142;entryY=1.017;entryDx=0;entryDy=0;entryPerimeter=0;" parent="iv0tSl8CeNdC8rWq6K2e-1" source="iv0tSl8CeNdC8rWq6K2e-4" target="iv0tSl8CeNdC8rWq6K2e-18" edge="1">
                    <mxGeometry relative="1" as="geometry">
                        <mxPoint x="205" y="370" as="targetPoint"/>
                    </mxGeometry>
                </mxCell>
                <mxCell id="iv0tSl8CeNdC8rWq6K2e-27" value="retrieve secret &lt;br&gt;with scoped token" style="edgeStyle=orthogonalEdgeStyle;rounded=0;orthogonalLoop=1;jettySize=auto;html=1;entryX=0.523;entryY=1.033;entryDx=0;entryDy=0;entryPerimeter=0;" parent="iv0tSl8CeNdC8rWq6K2e-1" source="iv0tSl8CeNdC8rWq6K2e-4" target="iv0tSl8CeNdC8rWq6K2e-18" edge="1">
                    <mxGeometry relative="1" as="geometry">
                        <Array as="points">
                            <mxPoint x="402" y="555"/>
                        </Array>
                    </mxGeometry>
                </mxCell>
                <mxCell id="iv0tSl8CeNdC8rWq6K2e-4" value="«Container»&lt;br&gt;&lt;b&gt;App&lt;/b&gt;" style="html=1;dropTarget=0;align=center;verticalAlign=top;fillColor=#d5e8d4;strokeColor=#82b366;" parent="iv0tSl8CeNdC8rWq6K2e-1" vertex="1">
                    <mxGeometry x="160" y="530" width="180" height="50" as="geometry"/>
                </mxCell>
                <mxCell id="iv0tSl8CeNdC8rWq6K2e-5" value="" style="shape=module;jettyWidth=8;jettyHeight=4;" parent="iv0tSl8CeNdC8rWq6K2e-4" vertex="1">
                    <mxGeometry x="1" width="20" height="20" relative="1" as="geometry">
                        <mxPoint x="-27" y="7" as="offset"/>
                    </mxGeometry>
                </mxCell>
                <mxCell id="iv0tSl8CeNdC8rWq6K2e-16" value="«Volume»&lt;br&gt;&lt;b&gt;service-account token&lt;/b&gt;" style="html=1;dropTarget=0;align=center;verticalAlign=top;fillColor=#fff2cc;strokeColor=#d6b656;" parent="iv0tSl8CeNdC8rWq6K2e-1" vertex="1">
                    <mxGeometry x="160" y="590" width="180" height="50" as="geometry"/>
                </mxCell>
                <mxCell id="iv0tSl8CeNdC8rWq6K2e-17" value="" style="shape=module;jettyWidth=8;jettyHeight=4;" parent="iv0tSl8CeNdC8rWq6K2e-16" vertex="1">
                    <mxGeometry x="1" width="20" height="20" relative="1" as="geometry">
                        <mxPoint x="-27" y="7" as="offset"/>
                    </mxGeometry>
                </mxCell>
                <mxCell id="iv0tSl8CeNdC8rWq6K2e-25" value="2. verify token" style="edgeStyle=orthogonalEdgeStyle;rounded=0;orthogonalLoop=1;jettySize=auto;html=1;entryX=0.25;entryY=0;entryDx=0;entryDy=0;" parent="iv0tSl8CeNdC8rWq6K2e-1" source="iv0tSl8CeNdC8rWq6K2e-18" target="iv0tSl8CeNdC8rWq6K2e-23" edge="1">
                    <mxGeometry relative="1" as="geometry">
                        <Array as="points">
                            <mxPoint x="485" y="360"/>
                            <mxPoint x="485" y="360"/>
                        </Array>
                    </mxGeometry>
                </mxCell>
                <mxCell id="iv0tSl8CeNdC8rWq6K2e-26" value="3. scoped token" style="edgeStyle=orthogonalEdgeStyle;rounded=0;orthogonalLoop=1;jettySize=auto;html=1;entryX=0.75;entryY=0;entryDx=0;entryDy=0;" parent="iv0tSl8CeNdC8rWq6K2e-1" source="iv0tSl8CeNdC8rWq6K2e-18" target="iv0tSl8CeNdC8rWq6K2e-4" edge="1">
                    <mxGeometry relative="1" as="geometry">
                        <Array as="points">
                            <mxPoint x="295" y="360"/>
                            <mxPoint x="295" y="360"/>
                        </Array>
                    </mxGeometry>
                </mxCell>
                <mxCell id="iv0tSl8CeNdC8rWq6K2e-18" value="«Service»&lt;br&gt;&lt;b&gt;vault&lt;/b&gt;" style="html=1;verticalAlign=top;align=center;fillColor=#f5f5f5;strokeColor=#666666;fontColor=#333333;" parent="iv0tSl8CeNdC8rWq6K2e-1" vertex="1">
                    <mxGeometry x="130" y="230" width="520" height="60" as="geometry"/>
                </mxCell>
                <mxCell id="iv0tSl8CeNdC8rWq6K2e-21" value="&lt;h1&gt;Vault General View&lt;/h1&gt;&lt;p style=&quot;text-align: left&quot;&gt;Explains the main components and interaction flow of Vault in a Kubernetes cluster&lt;/p&gt;" style="text;html=1;strokeColor=none;fillColor=none;spacing=5;spacingTop=-20;whiteSpace=wrap;overflow=hidden;rounded=0;align=center;verticalAlign=top;" parent="iv0tSl8CeNdC8rWq6K2e-1" vertex="1">
                    <mxGeometry x="160" y="100" width="460" height="90" as="geometry"/>
                </mxCell>
                <mxCell id="iv0tSl8CeNdC8rWq6K2e-23" value="«Container»&lt;br&gt;&lt;b&gt;master api&lt;/b&gt;" style="html=1;dropTarget=0;align=center;verticalAlign=top;fillColor=#dae8fc;strokeColor=#6c8ebf;" parent="iv0tSl8CeNdC8rWq6K2e-1" vertex="1">
                    <mxGeometry x="440" y="530" width="180" height="50" as="geometry"/>
                </mxCell>
                <mxCell id="iv0tSl8CeNdC8rWq6K2e-24" value="" style="shape=module;jettyWidth=8;jettyHeight=4;" parent="iv0tSl8CeNdC8rWq6K2e-23" vertex="1">
                    <mxGeometry x="1" width="20" height="20" relative="1" as="geometry">
                        <mxPoint x="-27" y="7" as="offset"/>
                    </mxGeometry>
                </mxCell>
            </root>
        </mxGraphModel>
    </diagram>
    <diagram id="lCJDRy62HYSXFKEokKjM" name="Vault_AgentInjector">
        <mxGraphModel dx="825" dy="712" grid="1" gridSize="10" guides="1" tooltips="1" connect="1" arrows="1" fold="1" page="1" pageScale="1" pageWidth="827" pageHeight="1169" background="#ffffff" math="0" shadow="0">
            <root>
                <mxCell id="0"/>
                <mxCell id="1" parent="0"/>
                <mxCell id="4" value="«POD»&lt;br&gt;&lt;b&gt;Custom App&lt;/b&gt;" style="html=1;verticalAlign=top;align=center;" parent="1" vertex="1">
                    <mxGeometry x="130" y="440" width="520" height="240" as="geometry"/>
                </mxCell>
                <mxCell id="N0Js5gTmuX_NDnHqY6kn-25" style="edgeStyle=orthogonalEdgeStyle;rounded=0;orthogonalLoop=1;jettySize=auto;html=1;entryX=0.5;entryY=0;entryDx=0;entryDy=0;" parent="1" source="7" target="15" edge="1">
                    <mxGeometry relative="1" as="geometry"/>
                </mxCell>
                <mxCell id="7" value="«Container»&lt;br&gt;&lt;b&gt;App&lt;/b&gt;" style="html=1;dropTarget=0;align=center;verticalAlign=top;fillColor=#d5e8d4;strokeColor=#82b366;" parent="1" vertex="1">
                    <mxGeometry x="160" y="530" width="180" height="50" as="geometry"/>
                </mxCell>
                <mxCell id="8" value="" style="shape=module;jettyWidth=8;jettyHeight=4;" parent="7" vertex="1">
                    <mxGeometry x="1" width="20" height="20" relative="1" as="geometry">
                        <mxPoint x="-27" y="7" as="offset"/>
                    </mxGeometry>
                </mxCell>
                <mxCell id="18" value="" style="edgeStyle=orthogonalEdgeStyle;rounded=0;orthogonalLoop=1;jettySize=auto;html=1;entryX=0.635;entryY=1.05;entryDx=0;entryDy=0;entryPerimeter=0;" parent="1" source="10" target="17" edge="1">
                    <mxGeometry relative="1" as="geometry"/>
                </mxCell>
                <mxCell id="19" value="3. store" style="edgeStyle=orthogonalEdgeStyle;rounded=0;orthogonalLoop=1;jettySize=auto;html=1;entryX=1;entryY=0.5;entryDx=0;entryDy=0;" parent="1" source="10" target="15" edge="1">
                    <mxGeometry relative="1" as="geometry"/>
                </mxCell>
                <mxCell id="10" value="«InitContainer»&lt;br&gt;&lt;b&gt;vault-agent&lt;/b&gt;" style="html=1;dropTarget=0;align=center;verticalAlign=top;fillColor=#f5f5f5;strokeColor=#666666;fontColor=#333333;" parent="1" vertex="1">
                    <mxGeometry x="430" y="530" width="180" height="50" as="geometry"/>
                </mxCell>
                <mxCell id="11" value="" style="shape=module;jettyWidth=8;jettyHeight=4;" parent="10" vertex="1">
                    <mxGeometry x="1" width="20" height="20" relative="1" as="geometry">
                        <mxPoint x="-27" y="7" as="offset"/>
                    </mxGeometry>
                </mxCell>
                <mxCell id="21" style="edgeStyle=orthogonalEdgeStyle;rounded=0;orthogonalLoop=1;jettySize=auto;html=1;dashed=1;" parent="1" source="12" edge="1">
                    <mxGeometry relative="1" as="geometry">
                        <mxPoint x="340" y="615" as="targetPoint"/>
                    </mxGeometry>
                </mxCell>
                <mxCell id="22" value="" style="edgeStyle=orthogonalEdgeStyle;rounded=0;orthogonalLoop=1;jettySize=auto;html=1;entryX=0.96;entryY=1;entryDx=0;entryDy=0;entryPerimeter=0;dashed=1;" parent="1" source="12" target="17" edge="1">
                    <mxGeometry relative="1" as="geometry">
                        <Array as="points">
                            <mxPoint x="629" y="615"/>
                        </Array>
                    </mxGeometry>
                </mxCell>
                <mxCell id="12" value="«SidecarContainer»&lt;br&gt;&lt;b&gt;vault-agent&lt;/b&gt;" style="html=1;dropTarget=0;align=center;verticalAlign=top;fillColor=#f5f5f5;strokeColor=#666666;fontColor=#333333;" parent="1" vertex="1">
                    <mxGeometry x="430" y="590" width="180" height="50" as="geometry"/>
                </mxCell>
                <mxCell id="13" value="" style="shape=module;jettyWidth=8;jettyHeight=4;" parent="12" vertex="1">
                    <mxGeometry x="1" width="20" height="20" relative="1" as="geometry">
                        <mxPoint x="-27" y="7" as="offset"/>
                    </mxGeometry>
                </mxCell>
                <mxCell id="20" value="0. enhance deployment with init/sidecar" style="edgeStyle=orthogonalEdgeStyle;rounded=0;orthogonalLoop=1;jettySize=auto;html=1;entryX=0.75;entryY=0;entryDx=0;entryDy=0;" parent="1" source="14" target="7" edge="1">
                    <mxGeometry relative="1" as="geometry">
                        <Array as="points">
                            <mxPoint x="295" y="490"/>
                        </Array>
                    </mxGeometry>
                </mxCell>
                <mxCell id="14" value="«POD»&lt;br&gt;&lt;b&gt;vault-agent-injector&lt;/b&gt;" style="html=1;verticalAlign=top;align=center;fillColor=#f5f5f5;strokeColor=#666666;fontColor=#333333;" parent="1" vertex="1">
                    <mxGeometry x="680" y="440" width="130" height="240" as="geometry"/>
                </mxCell>
                <mxCell id="15" value="«InMemory Volume»&lt;br&gt;&lt;b&gt;/vault/secrets/*&lt;/b&gt;" style="html=1;dropTarget=0;align=center;verticalAlign=top;fillColor=#fff2cc;strokeColor=#d6b656;" parent="1" vertex="1">
                    <mxGeometry x="160" y="590" width="180" height="50" as="geometry"/>
                </mxCell>
                <mxCell id="16" value="" style="shape=module;jettyWidth=8;jettyHeight=4;" parent="15" vertex="1">
                    <mxGeometry x="1" width="20" height="20" relative="1" as="geometry">
                        <mxPoint x="-27" y="7" as="offset"/>
                    </mxGeometry>
                </mxCell>
                <mxCell id="17" value="«Service»&lt;br&gt;&lt;b&gt;vault&lt;/b&gt;" style="html=1;verticalAlign=top;align=center;fillColor=#f5f5f5;strokeColor=#666666;fontColor=#333333;" parent="1" vertex="1">
                    <mxGeometry x="130" y="230" width="520" height="60" as="geometry"/>
                </mxCell>
                <mxCell id="23" value="&lt;div&gt;&lt;span&gt;&lt;font style=&quot;font-size: 11px&quot;&gt;handles dyn. secrets on-demand&lt;/font&gt;&lt;/span&gt;&lt;/div&gt;" style="text;html=1;strokeColor=none;fillColor=none;align=center;verticalAlign=middle;whiteSpace=wrap;rounded=0;" parent="1" vertex="1">
                    <mxGeometry x="590" y="350" width="110" height="20" as="geometry"/>
                </mxCell>
                <mxCell id="24" value="&lt;span style=&quot;font-size: 11px ; background-color: rgb(255 , 255 , 255)&quot;&gt;1. k8s auth with service account&lt;/span&gt;&lt;br style=&quot;font-size: 11px&quot;&gt;&lt;div style=&quot;font-size: 11px ; text-align: left&quot;&gt;2. retrieve secret&lt;/div&gt;" style="text;html=1;strokeColor=none;fillColor=none;align=center;verticalAlign=middle;whiteSpace=wrap;rounded=0;" parent="1" vertex="1">
                    <mxGeometry x="370" y="350" width="180" height="20" as="geometry"/>
                </mxCell>
                <mxCell id="25" value="&lt;h1&gt;Vault Agent Injector&lt;/h1&gt;&lt;p style=&quot;text-align: left&quot;&gt;Explains the main components and interaction flow of Vault Agent Injector with Vault and a custom app to retrieve and expose secrets&lt;/p&gt;" style="text;html=1;strokeColor=none;fillColor=none;spacing=5;spacingTop=-20;whiteSpace=wrap;overflow=hidden;rounded=0;align=center;verticalAlign=top;" parent="1" vertex="1">
                    <mxGeometry x="160" y="100" width="460" height="90" as="geometry"/>
                </mxCell>
            </root>
        </mxGraphModel>
    </diagram>
    <diagram name="Vault_BanzaiSecretWebhook" id="WEzW3vHnMl2_dDlFXYeS">
        <mxGraphModel dx="825" dy="712" grid="1" gridSize="10" guides="1" tooltips="1" connect="1" arrows="1" fold="1" page="1" pageScale="1" pageWidth="827" pageHeight="1169" background="#ffffff" math="0" shadow="0">
            <root>
                <mxCell id="w7qtYsFjSHltLkMPXCbu-0"/>
                <mxCell id="w7qtYsFjSHltLkMPXCbu-1" parent="w7qtYsFjSHltLkMPXCbu-0"/>
                <mxCell id="w7qtYsFjSHltLkMPXCbu-2" value="«POD»&lt;br&gt;&lt;b&gt;Custom App&lt;/b&gt;" style="html=1;verticalAlign=top;align=center;" parent="w7qtYsFjSHltLkMPXCbu-1" vertex="1">
                    <mxGeometry x="130" y="440" width="520" height="240" as="geometry"/>
                </mxCell>
                <mxCell id="w7qtYsFjSHltLkMPXCbu-23" style="edgeStyle=orthogonalEdgeStyle;rounded=0;orthogonalLoop=1;jettySize=auto;html=1;entryX=0.5;entryY=0;entryDx=0;entryDy=0;" parent="w7qtYsFjSHltLkMPXCbu-1" source="w7qtYsFjSHltLkMPXCbu-3" target="w7qtYsFjSHltLkMPXCbu-15" edge="1">
                    <mxGeometry relative="1" as="geometry"/>
                </mxCell>
                <mxCell id="w7qtYsFjSHltLkMPXCbu-3" value="«Container»&lt;br&gt;&lt;b&gt;App&lt;/b&gt;" style="html=1;dropTarget=0;align=center;verticalAlign=top;fillColor=#d5e8d4;strokeColor=#82b366;" parent="w7qtYsFjSHltLkMPXCbu-1" vertex="1">
                    <mxGeometry x="147" y="530" width="180" height="50" as="geometry"/>
                </mxCell>
                <mxCell id="w7qtYsFjSHltLkMPXCbu-4" value="" style="shape=module;jettyWidth=8;jettyHeight=4;" parent="w7qtYsFjSHltLkMPXCbu-3" vertex="1">
                    <mxGeometry x="1" width="20" height="20" relative="1" as="geometry">
                        <mxPoint x="-27" y="7" as="offset"/>
                    </mxGeometry>
                </mxCell>
                <mxCell id="w7qtYsFjSHltLkMPXCbu-5" value="" style="edgeStyle=orthogonalEdgeStyle;rounded=0;orthogonalLoop=1;jettySize=auto;html=1;exitX=0.5;exitY=0;exitDx=0;exitDy=0;entryX=0.212;entryY=1.017;entryDx=0;entryDy=0;entryPerimeter=0;" parent="w7qtYsFjSHltLkMPXCbu-1" source="w7qtYsFjSHltLkMPXCbu-3" target="w7qtYsFjSHltLkMPXCbu-17" edge="1">
                    <mxGeometry relative="1" as="geometry">
                        <mxPoint x="250" y="290" as="targetPoint"/>
                        <Array as="points">
                            <mxPoint x="240" y="530"/>
                        </Array>
                    </mxGeometry>
                </mxCell>
                <mxCell id="w7qtYsFjSHltLkMPXCbu-6" value="1. replace process&lt;br&gt;" style="edgeStyle=orthogonalEdgeStyle;rounded=0;orthogonalLoop=1;jettySize=auto;html=1;entryX=1;entryY=0.5;entryDx=0;entryDy=0;" parent="w7qtYsFjSHltLkMPXCbu-1" source="w7qtYsFjSHltLkMPXCbu-7" target="w7qtYsFjSHltLkMPXCbu-3" edge="1">
                    <mxGeometry relative="1" as="geometry"/>
                </mxCell>
                <mxCell id="w7qtYsFjSHltLkMPXCbu-22" value="2. attach mount" style="edgeStyle=orthogonalEdgeStyle;rounded=0;orthogonalLoop=1;jettySize=auto;html=1;entryX=1;entryY=0.5;entryDx=0;entryDy=0;" parent="w7qtYsFjSHltLkMPXCbu-1" source="w7qtYsFjSHltLkMPXCbu-7" target="w7qtYsFjSHltLkMPXCbu-15" edge="1">
                    <mxGeometry relative="1" as="geometry"/>
                </mxCell>
                <mxCell id="w7qtYsFjSHltLkMPXCbu-7" value="«InitContainer»&lt;br&gt;&lt;b&gt;copy-vault-env&lt;/b&gt;" style="html=1;dropTarget=0;align=center;verticalAlign=top;fillColor=#f5f5f5;strokeColor=#666666;fontColor=#333333;" parent="w7qtYsFjSHltLkMPXCbu-1" vertex="1">
                    <mxGeometry x="442" y="530" width="180" height="50" as="geometry"/>
                </mxCell>
                <mxCell id="w7qtYsFjSHltLkMPXCbu-8" value="" style="shape=module;jettyWidth=8;jettyHeight=4;" parent="w7qtYsFjSHltLkMPXCbu-7" vertex="1">
                    <mxGeometry x="1" width="20" height="20" relative="1" as="geometry">
                        <mxPoint x="-27" y="7" as="offset"/>
                    </mxGeometry>
                </mxCell>
                <mxCell id="w7qtYsFjSHltLkMPXCbu-10" value="" style="edgeStyle=orthogonalEdgeStyle;rounded=0;orthogonalLoop=1;jettySize=auto;html=1;entryX=0.96;entryY=1;entryDx=0;entryDy=0;entryPerimeter=0;dashed=1;" parent="w7qtYsFjSHltLkMPXCbu-1" source="w7qtYsFjSHltLkMPXCbu-11" target="w7qtYsFjSHltLkMPXCbu-17" edge="1">
                    <mxGeometry relative="1" as="geometry">
                        <Array as="points">
                            <mxPoint x="629" y="615"/>
                        </Array>
                    </mxGeometry>
                </mxCell>
                <mxCell id="w7qtYsFjSHltLkMPXCbu-11" value="«SidecarContainer»&lt;br&gt;&lt;b&gt;vault-agent&lt;/b&gt;" style="html=1;dropTarget=0;align=center;verticalAlign=top;fillColor=#f5f5f5;strokeColor=#666666;fontColor=#333333;dashed=1;" parent="w7qtYsFjSHltLkMPXCbu-1" vertex="1">
                    <mxGeometry x="442" y="590" width="180" height="50" as="geometry"/>
                </mxCell>
                <mxCell id="w7qtYsFjSHltLkMPXCbu-12" value="" style="shape=module;jettyWidth=8;jettyHeight=4;" parent="w7qtYsFjSHltLkMPXCbu-11" vertex="1">
                    <mxGeometry x="1" width="20" height="20" relative="1" as="geometry">
                        <mxPoint x="-27" y="7" as="offset"/>
                    </mxGeometry>
                </mxCell>
                <mxCell id="w7qtYsFjSHltLkMPXCbu-13" value="0. enhance deployment with initContainer" style="edgeStyle=orthogonalEdgeStyle;rounded=0;orthogonalLoop=1;jettySize=auto;html=1;entryX=0.75;entryY=0;entryDx=0;entryDy=0;" parent="w7qtYsFjSHltLkMPXCbu-1" source="w7qtYsFjSHltLkMPXCbu-14" target="w7qtYsFjSHltLkMPXCbu-3" edge="1">
                    <mxGeometry relative="1" as="geometry">
                        <Array as="points">
                            <mxPoint x="282" y="490"/>
                        </Array>
                    </mxGeometry>
                </mxCell>
                <mxCell id="w7qtYsFjSHltLkMPXCbu-14" value="«Webhook»&lt;br&gt;&lt;b&gt;bank-vault&lt;/b&gt;" style="html=1;verticalAlign=top;align=center;fillColor=#f5f5f5;strokeColor=#666666;fontColor=#333333;" parent="w7qtYsFjSHltLkMPXCbu-1" vertex="1">
                    <mxGeometry x="680" y="440" width="130" height="240" as="geometry"/>
                </mxCell>
                <mxCell id="w7qtYsFjSHltLkMPXCbu-15" value="«InMemory Volume»&lt;br&gt;&lt;b&gt;/vault/*&lt;/b&gt;" style="html=1;dropTarget=0;align=center;verticalAlign=top;fillColor=#fff2cc;strokeColor=#d6b656;" parent="w7qtYsFjSHltLkMPXCbu-1" vertex="1">
                    <mxGeometry x="147" y="590" width="180" height="50" as="geometry"/>
                </mxCell>
                <mxCell id="w7qtYsFjSHltLkMPXCbu-16" value="" style="shape=module;jettyWidth=8;jettyHeight=4;" parent="w7qtYsFjSHltLkMPXCbu-15" vertex="1">
                    <mxGeometry x="1" width="20" height="20" relative="1" as="geometry">
                        <mxPoint x="-27" y="7" as="offset"/>
                    </mxGeometry>
                </mxCell>
                <mxCell id="w7qtYsFjSHltLkMPXCbu-17" value="«Service»&lt;br&gt;&lt;b&gt;vault&lt;/b&gt;" style="html=1;verticalAlign=top;align=center;fillColor=#f5f5f5;strokeColor=#666666;fontColor=#333333;" parent="w7qtYsFjSHltLkMPXCbu-1" vertex="1">
                    <mxGeometry x="130" y="230" width="520" height="60" as="geometry"/>
                </mxCell>
                <mxCell id="w7qtYsFjSHltLkMPXCbu-18" value="&lt;div&gt;&lt;span&gt;&lt;font style=&quot;font-size: 11px&quot;&gt;handles dyn. secrets on-demand&lt;/font&gt;&lt;/span&gt;&lt;/div&gt;" style="text;html=1;strokeColor=none;fillColor=none;align=center;verticalAlign=middle;whiteSpace=wrap;rounded=0;" parent="w7qtYsFjSHltLkMPXCbu-1" vertex="1">
                    <mxGeometry x="590" y="350" width="110" height="20" as="geometry"/>
                </mxCell>
                <mxCell id="w7qtYsFjSHltLkMPXCbu-19" value="&lt;span style=&quot;font-size: 11px ; background-color: rgb(255 , 255 , 255)&quot;&gt;1. k8s auth with service account&lt;/span&gt;&lt;br style=&quot;font-size: 11px&quot;&gt;&lt;div style=&quot;font-size: 11px ; text-align: left&quot;&gt;2. retrieve secret&lt;/div&gt;" style="text;html=1;strokeColor=none;fillColor=none;align=center;verticalAlign=middle;whiteSpace=wrap;rounded=0;" parent="w7qtYsFjSHltLkMPXCbu-1" vertex="1">
                    <mxGeometry x="170" y="350" width="180" height="20" as="geometry"/>
                </mxCell>
                <mxCell id="w7qtYsFjSHltLkMPXCbu-20" value="&lt;h1&gt;Banzai Secret Webhook (bank-vault)&lt;/h1&gt;&lt;p style=&quot;text-align: left&quot;&gt;Explains the main components and interaction flow of Banzai Secret Webhook with Vault and a custom app to retrieve and expose secrets&lt;/p&gt;" style="text;html=1;strokeColor=none;fillColor=none;spacing=5;spacingTop=-20;whiteSpace=wrap;overflow=hidden;rounded=0;align=center;verticalAlign=top;" parent="w7qtYsFjSHltLkMPXCbu-1" vertex="1">
                    <mxGeometry x="160" y="100" width="460" height="90" as="geometry"/>
                </mxCell>
            </root>
        </mxGraphModel>
    </diagram>
</mxfile>